HIERARCHY
ROOT Hip
{
  OFFSET 0.000000 0.000000 0.000000
  CHANNELS 6 Xposition Yposition Zposition Zrotation Xrotation Yrotation
  JOINT RHip
  {
    OFFSET 0.000000 0.000000 0.000000
    CHANNELS 3 Xposition Yposition Zposition
    End Site
    {
      OFFSET 0.000000 0.100000 0.000000
    }
  }
  JOINT RKnee
  {
    OFFSET 0.000000 0.000000 0.000000
    CHANNELS 3 Xposition Yposition Zposition
    End Site
    {
      OFFSET 0.000000 0.100000 0.000000
    }
  }
  JOINT RFoot
  {
    OFFSET 0.000000 0.000000 0.000000
    CHANNELS 3 Xposition Yposition Zposition
    End Site
    {
      OFFSET 0.000000 0.100000 0.000000
    }
  }
  JOINT LHip
  {
    OFFSET 0.000000 0.000000 0.000000
    CHANNELS 3 Xposition Yposition Zposition
    End Site
    {
      OFFSET 0.000000 0.100000 0.000000
    }
  }
  JOINT LKnee
  {
    OFFSET 0.000000 0.000000 0.000000
    CHANNELS 3 Xposition Yposition Zposition
    End Site
    {
      OFFSET 0.000000 0.100000 0.000000
    }
  }
  JOINT LFoot
  {
    OFFSET 0.000000 0.000000 0.000000
    CHANNELS 3 Xposition Yposition Zposition
    End Site
    {
      OFFSET 0.000000 0.100000 0.000000
    }
  }
  JOINT Spine
  {
    OFFSET 0.000000 0.000000 0.000000
    CHANNELS 3 Xposition Yposition Zposition
    End Site
    {
      OFFSET 0.000000 0.100000 0.000000
    }
  }
  JOINT Thorax
  {
    OFFSET 0.000000 0.000000 0.000000
    CHANNELS 3 Xposition Yposition Zposition
    End Site
    {
      OFFSET 0.000000 0.100000 0.000000
    }
  }
  JOINT Nose
  {
    OFFSET 0.000000 0.000000 0.000000
    CHANNELS 3 Xposition Yposition Zposition
    End Site
    {
      OFFSET 0.000000 0.100000 0.000000
    }
  }
  JOINT Head
  {
    OFFSET 0.000000 0.000000 0.000000
    CHANNELS 3 Xposition Yposition Zposition
    End Site
    {
      OFFSET 0.000000 0.100000 0.000000
    }
  }
  JOINT LShoulder
  {
    OFFSET 0.000000 0.000000 0.000000
    CHANNELS 3 Xposition Yposition Zposition
    End Site
    {
      OFFSET 0.000000 0.100000 0.000000
    }
  }
  JOINT LElbow
  {
    OFFSET 0.000000 0.000000 0.000000
    CHANNELS 3 Xposition Yposition Zposition
    End Site
    {
      OFFSET 0.000000 0.100000 0.000000
    }
  }
  JOINT LWrist
  {
    OFFSET 0.000000 0.000000 0.000000
    CHANNELS 3 Xposition Yposition Zposition
    End Site
    {
      OFFSET 0.000000 0.100000 0.000000
    }
  }
  JOINT RShoulder
  {
    OFFSET 0.000000 0.000000 0.000000
    CHANNELS 3 Xposition Yposition Zposition
    End Site
    {
      OFFSET 0.000000 0.100000 0.000000
    }
  }
  JOINT RElbow
  {
    OFFSET 0.000000 0.000000 0.000000
    CHANNELS 3 Xposition Yposition Zposition
    End Site
    {
      OFFSET 0.000000 0.100000 0.000000
    }
  }
  JOINT RWrist
  {
    OFFSET 0.000000 0.000000 0.000000
    CHANNELS 3 Xposition Yposition Zposition
    End Site
    {
      OFFSET 0.000000 0.100000 0.000000
    }
  }
}
MOTION
Frames: 23
Frame Time: 0.040000
-0.034658 1.135958 0.000039 0.000000 0.000000 0.000000 0.081151 0.010568 0.058293 0.221413 -0.473734 -0.187566 0.203671 -1.017023 -0.320590 -0.081156 -0.010531 -0.058356 0.084814 -0.458773 -0.189261 0.102999 -1.021399 -0.329224 0.033271 0.287068 0.171612 0.083348 0.635807 0.301545 0.160967 0.724145 0.280624 0.104253 0.855390 0.349399 0.017320 0.587004 0.211969 0.206622 0.407712 0.195221 0.236267 0.399350 0.398292 0.160397 0.608722 0.342516 0.319479 0.330708 0.321141 0.389109 0.360571 0.144783
-0.035307 1.134744 0.000039 0.000000 0.000000 0.000000 0.078987 0.011821 0.058114 0.220182 -0.490028 -0.181968 0.209685 -1.042299 -0.323890 -0.078993 -0.011783 -0.058177 0.085818 -0.478100 -0.192050 0.115523 -1.055555 -0.331379 0.035947 0.294420 0.165536 0.089677 0.648656 0.288394 0.170777 0.740322 0.267910 0.118584 0.875047 0.333990 0.025391 0.598008 0.199515 0.222600 0.422440 0.189547 0.248464 0.411733 0.402673 0.163204 0.619740 0.334369 0.327008 0.340018 0.324574 0.396078 0.378431 0.149383
-0.035025 1.132531 0.000039 0.000000 0.000000 0.000000 0.079402 0.012443 0.056956 0.218855 -0.497319 -0.195155 0.210722 -1.049686 -0.346878 -0.079409 -0.012406 -0.057017 0.082965 -0.487485 -0.204452 0.124479 -1.068243 -0.352655 0.038064 0.296960 0.164439 0.094542 0.652078 0.286825 0.178381 0.744656 0.266466 0.130365 0.880782 0.334814 0.029616 0.603233 0.196052 0.242135 0.441115 0.182565 0.260430 0.430842 0.409404 0.168347 0.623856 0.335147 0.339308 0.345973 0.328572 0.408725 0.399477 0.147221
-0.032573 1.129429 0.000042 0.000000 0.000000 0.000000 0.081760 0.012494 0.056373 0.219552 -0.494408 -0.219115 0.207901 -1.036891 -0.383148 -0.081767 -0.012457 -0.056436 0.080207 -0.483986 -0.221652 0.129936 -1.059074 -0.387911 0.039274 0.294330 0.167374 0.098298 0.645982 0.294768 0.183982 0.736653 0.274523 0.137635 0.872167 0.347846 0.030710 0.602324 0.199259 0.265992 0.462312 0.177122 0.271984 0.457766 0.421185 0.175673 0.620133 0.343910 0.357226 0.348481 0.332136 0.425962 0.424206 0.137938
-0.028653 1.125622 0.000046 0.000000 0.000000 0.000000 0.085703 0.012639 0.056413 0.220712 -0.497877 -0.227954 0.204684 -1.033157 -0.400235 -0.085710 -0.012604 -0.056484 0.078552 -0.486290 -0.233759 0.138125 -1.067038 -0.413574 0.038898 0.295179 0.164915 0.099848 0.647149 0.291354 0.185184 0.736968 0.268925 0.138592 0.873282 0.344545 0.027213 0.608116 0.193726 0.279854 0.481199 0.166885 0.281389 0.480099 0.426556 0.182354 0.619144 0.340753 0.368380 0.345299 0.322665 0.431769 0.441701 0.123675
-0.024315 1.121547 0.000048 0.000000 0.000000 0.000000 0.091261 0.011814 0.053683 0.217672 -0.506182 -0.230935 0.196025 -1.038902 -0.402662 -0.091268 -0.011780 -0.053758 0.072494 -0.496247 -0.244147 0.144887 -1.085279 -0.434076 0.036803 0.298999 0.159507 0.096444 0.653753 0.282764 0.178749 0.744239 0.255177 0.131839 0.881316 0.334433 0.016321 0.618469 0.186385 0.275833 0.493232 0.151049 0.286970 0.488314 0.422993 0.186773 0.619757 0.328817 0.364125 0.331052 0.302339 0.422183 0.443341 0.110047
-0.020161 1.117727 0.000047 0.000000 0.000000 0.000000 0.096987 0.010041 0.048434 0.210288 -0.512946 -0.236547 0.181265 -1.044243 -0.404009 -0.096994 -0.010007 -0.048508 0.063108 -0.506514 -0.254251 0.148075 -1.098153 -0.453068 0.034497 0.302390 0.155285 0.090286 0.659444 0.277997 0.169044 0.750699 0.244059 0.122432 0.887299 0.329607 0.002152 0.628163 0.183873 0.261728 0.501076 0.139165 0.289715 0.487375 0.417721 0.189722 0.618878 0.318188 0.350544 0.309624 0.282361 0.406681 0.433456 0.102487
-0.017285 1.114582 0.000046 0.000000 0.000000 0.000000 0.101870 0.007992 0.043198 0.199878 -0.517323 -0.242316 0.162976 -1.045592 -0.404385 -0.101877 -0.007958 -0.043270 0.054980 -0.512348 -0.261686 0.150960 -1.103468 -0.462623 0.033335 0.304403 0.153981 0.085569 0.662911 0.280965 0.162033 0.753906 0.241907 0.115995 0.889305 0.335678 -0.009684 0.636583 0.188315 0.245201 0.507270 0.137595 0.289813 0.483085 0.416520 0.192782 0.616461 0.314070 0.335435 0.286411 0.264061 0.389629 0.414563 0.099725
-0.016477 1.112401 0.000044 0.000000 0.000000 0.000000 0.105423 0.005739 0.041171 0.187748 -0.518436 -0.250129 0.140255 -1.036862 -0.404058 -0.105430 -0.005703 -0.041241 0.052205 -0.508314 -0.267613 0.157549 -1.096275 -0.456717 0.034930 0.303634 0.160005 0.088083 0.661264 0.302734 0.165857 0.748832 0.263903 0.120117 0.882271 0.371455 -0.012482 0.641462 0.206744 0.236050 0.511304 0.143040 0.293510 0.478026 0.423065 0.199511 0.611643 0.328093 0.326592 0.265189 0.249059 0.373111 0.388288 0.100485
-0.016777 1.111097 0.000043 0.000000 0.000000 0.000000 0.106669 0.003736 0.044034 0.177386 -0.518819 -0.254981 0.115328 -1.021846 -0.402958 -0.106677 -0.003697 -0.044103 0.054799 -0.499139 -0.271882 0.165864 -1.082684 -0.439133 0.039007 0.301615 0.170630 0.098495 0.656448 0.336725 0.181203 0.738637 0.303042 0.135515 0.869466 0.427275 -0.005642 0.642759 0.232564 0.237719 0.512901 0.147966 0.304506 0.473173 0.433564 0.210410 0.606094 0.357009 0.325437 0.251154 0.241923 0.361336 0.363362 0.106542
-0.017172 1.110320 0.000042 0.000000 0.000000 0.000000 0.106245 0.002348 0.047218 0.170172 -0.522125 -0.250250 0.094489 -1.013116 -0.398753 -0.106254 -0.002309 -0.047286 0.055308 -0.498385 -0.273035 0.167711 -1.078443 -0.425022 0.041615 0.302738 0.175990 0.106534 0.656320 0.357156 0.192350 0.736446 0.325870 0.147947 0.864842 0.459693 -0.001350 0.645152 0.248234 0.235332 0.514515 0.148965 0.310449 0.467650 0.434385 0.219051 0.603130 0.375845 0.321887 0.246000 0.237558 0.352467 0.348953 0.112819
-0.017524 1.109750 0.000043 0.000000 0.000000 0.000000 0.107278 0.000884 0.047614 0.164917 -0.521820 -0.249935 0.076260 -1.002156 -0.396261 -0.107287 -0.000844 -0.047683 0.050743 -0.501854 -0.275806 0.163764 -1.075140 -0.419493 0.042052 0.304926 0.179530 0.108923 0.658435 0.369840 0.194795 0.738435 0.336791 0.152700 0.864593 0.476034 -0.003609 0.647815 0.259599 0.224878 0.515730 0.149308 0.304399 0.462505 0.427126 0.224551 0.600967 0.386728 0.314517 0.245459 0.232375 0.341640 0.341003 0.111093
-0.017837 1.109225 0.000044 0.000000 0.000000 0.000000 0.109586 -0.000520 0.046976 0.161492 -0.516623 -0.256317 0.058005 -0.986368 -0.394215 -0.109594 0.000560 -0.047048 0.044563 -0.505040 -0.280211 0.158707 -1.068417 -0.419358 0.042356 0.306329 0.184702 0.110304 0.660097 0.383165 0.195438 0.739581 0.347281 0.155899 0.863845 0.490844 -0.006608 0.649429 0.271445 0.212670 0.515181 0.149251 0.289474 0.460985 0.415825 0.229895 0.599497 0.397779 0.308381 0.248392 0.227735 0.328970 0.336935 0.099770
-0.018139 1.108675 0.000046 0.000000 0.000000 0.000000 0.112127 -0.000671 0.045753 0.158313 -0.512004 -0.258824 0.041410 -0.976494 -0.382733 -0.112136 0.000709 -0.045830 0.037804 -0.509931 -0.283131 0.153604 -1.068081 -0.424387 0.042322 0.308722 0.186481 0.110264 0.664769 0.386140 0.193833 0.743336 0.346390 0.157141 0.866608 0.490752 -0.011488 0.652990 0.275881 0.192482 0.513414 0.146624 0.261946 0.460617 0.393994 0.234388 0.602444 0.397653 0.303753 0.256666 0.214263 0.312081 0.338671 0.077752
-0.018517 1.108398 0.000050 0.000000 0.000000 0.000000 0.115772 -0.000286 0.042504 0.154140 -0.509686 -0.262269 0.027696 -0.972279 -0.370602 -0.115780 0.000321 -0.042587 0.028310 -0.515070 -0.285922 0.147214 -1.072752 -0.435743 0.040818 0.311005 0.186551 0.106744 0.670862 0.382769 0.187663 0.748355 0.337604 0.154682 0.870250 0.482606 -0.021454 0.657512 0.277664 0.161350 0.510079 0.145827 0.221764 0.456553 0.370380 0.236923 0.608466 0.388459 0.297189 0.268182 0.192816 0.288242 0.342226 0.050020
-0.018840 1.108751 0.000053 0.000000 0.000000 0.000000 0.120266 -0.000106 0.037496 0.149216 -0.509592 -0.268236 0.015763 -0.971236 -0.364844 -0.120274 0.000139 -0.037587 0.017098 -0.519167 -0.288109 0.140196 -1.078066 -0.448929 0.038382 0.311861 0.187135 0.101051 0.675893 0.379160 0.178786 0.752366 0.327949 0.150292 0.872028 0.474750 -0.034316 0.661126 0.281035 0.125003 0.505279 0.151408 0.175680 0.448756 0.357308 0.237868 0.614790 0.377130 0.287039 0.281789 0.169774 0.257708 0.345293 0.021946
-0.018860 1.109670 0.000057 0.000000 0.000000 0.000000 0.124614 0.000052 0.031760 0.143747 -0.511607 -0.271897 0.003985 -0.972770 -0.361659 -0.124622 -0.000022 -0.031859 0.006829 -0.522904 -0.287788 0.134385 -1.082890 -0.458099 0.036230 0.311753 0.187520 0.095285 0.679849 0.375096 0.169582 0.755495 0.318432 0.145561 0.872730 0.466886 -0.046790 0.663820 0.285418 0.086989 0.499335 0.163821 0.128023 0.438523 0.356195 0.238039 0.620288 0.364594 0.273682 0.297229 0.144894 0.222248 0.349120 -0.003956
-0.018577 1.110792 0.000061 0.000000 0.000000 0.000000 0.128048 0.000337 0.026002 0.137866 -0.515386 -0.271317 -0.008590 -0.975143 -0.357465 -0.128056 -0.000309 -0.026109 -0.001307 -0.527138 -0.284748 0.129913 -1.086679 -0.461801 0.034643 0.311348 0.187777 0.090260 0.683039 0.371537 0.160831 0.758260 0.310614 0.140817 0.873123 0.460449 -0.057282 0.665405 0.291647 0.049012 0.491663 0.181424 0.081958 0.425901 0.361491 0.237682 0.624514 0.352216 0.258259 0.313058 0.117200 0.184071 0.354502 -0.027253
-0.017930 1.111896 0.000065 0.000000 0.000000 0.000000 0.130347 0.000772 0.020802 0.132287 -0.519929 -0.266898 -0.021245 -0.977236 -0.350877 -0.130354 -0.000746 -0.020915 -0.007545 -0.531667 -0.280546 0.125049 -1.089427 -0.462288 0.033188 0.311031 0.187985 0.085538 0.685799 0.368975 0.152577 0.761155 0.304659 0.136170 0.873694 0.455784 -0.065909 0.665820 0.299081 0.013493 0.482145 0.200572 0.042385 0.411559 0.365352 0.236380 0.627718 0.341083 0.241381 0.328286 0.086293 0.144691 0.361915 -0.049662
-0.016630 1.112760 0.000067 0.000000 0.000000 0.000000 0.131905 0.001186 0.016417 0.127588 -0.523795 -0.260180 -0.033011 -0.978157 -0.341922 -0.131912 -0.001162 -0.016534 -0.012331 -0.534984 -0.276338 0.119120 -1.090543 -0.461436 0.031742 0.310861 0.188198 0.081116 0.688477 0.367394 0.145481 0.764568 0.300077 0.132487 0.874730 0.452871 -0.073189 0.665503 0.306491 -0.018602 0.470605 0.217588 0.009604 0.397818 0.362151 0.234400 0.630513 0.331422 0.222284 0.342518 0.052042 0.104295 0.372223 -0.070996
-0.014650 1.113037 0.000069 0.000000 0.000000 0.000000 0.133136 0.001435 0.012495 0.123377 -0.526130 -0.253400 -0.043351 -0.977323 -0.332418 -0.133143 -0.001412 -0.012617 -0.016312 -0.536229 -0.271590 0.113335 -1.089578 -0.460261 0.030755 0.310704 0.188635 0.077779 0.691019 0.366684 0.140355 0.768629 0.296769 0.130647 0.876213 0.452369 -0.079074 0.664734 0.313956 -0.047513 0.457670 0.233559 -0.022669 0.388153 0.354041 0.232919 0.633424 0.322413 0.200842 0.356053 0.015389 0.063567 0.385105 -0.090203
-0.012431 1.112748 0.000071 0.000000 0.000000 0.000000 0.134255 0.001529 0.008073 0.118891 -0.526931 -0.248892 -0.051141 -0.974885 -0.325137 -0.134261 -0.001506 -0.008198 -0.020748 -0.536134 -0.265818 0.108398 -1.087252 -0.459875 0.030819 0.310328 0.189710 0.075781 0.693082 0.366901 0.137012 0.773197 0.295052 0.130431 0.877927 0.454751 -0.083530 0.663488 0.322802 -0.072803 0.445255 0.253332 -0.058612 0.385214 0.349679 0.232546 0.636668 0.312878 0.177039 0.369555 -0.021814 0.023199 0.399350 -0.107571
-0.010327 1.112305 0.000071 0.000000 0.000000 0.000000 0.135219 0.001529 0.002748 0.113779 -0.526399 -0.247250 -0.055874 -0.971138 -0.321337 -0.135226 -0.001508 -0.002874 -0.026184 -0.535472 -0.259104 0.104128 -1.084420 -0.461091 0.032132 0.309557 0.191770 0.074418 0.694470 0.368600 0.134249 0.777720 0.295489 0.130907 0.879473 0.459880 -0.086834 0.661418 0.334080 -0.094093 0.434021 0.279203 -0.097701 0.388755 0.355790 0.232468 0.640089 0.303372 0.151065 0.383144 -0.056380 -0.017156 0.414749 -0.122373
